<?xml version="1.0" standalone="no"?><!DOCTYPE svg PUBLIC "-//W3C//DTD SVG 1.1//EN" "http://www.w3.org/Graphics/SVG/1.1/DTD/svg11.dtd"><svg class="icon" width="200px" height="200.00px" viewBox="0 0 1024 1024" version="1.1" xmlns="http://www.w3.org/2000/svg"><path fill="#0D0B01" d="M695.450267 0.031999l-534.127309 0c-36.670854 0-66.493922 29.75907-66.493922 66.333927l0 891.268148c0 36.606856 29.823068 66.333927 66.461923 66.333927l701.418081 0c36.638855 0 66.461923-29.75907 66.461923-66.397925l0-713.001719-233.720696-244.568357zM682.650667 68.989844l169.658698 177.530452-160.122996 0c-5.247836 0-9.535702-4.287866-9.535702-9.535702l0-167.99475zM862.70904 967.105778l-701.418081 0c-5.279835 0-9.567701-4.255867-9.567701-9.471704l0-891.268148c0-5.215837 4.319865-9.471704 9.5997-9.471704l464.433486 0 0 180.090372c0 36.638855 29.791069 66.429924 66.429924 66.429924l180.090372 0 0 654.187557c0 5.247836-4.319865 9.503703-9.567701 9.503703zM730.073185 474.097184l-436.14637 0c-15.711509 0-28.447111 12.735602-28.447111 28.447111s12.735602 28.447111 28.447111 28.447111l436.14637 0c15.711509 0 28.447111-12.735602 28.447111-28.447111s-12.735602-28.447111-28.447111-28.447111zM578.365926 644.747852l-284.439111 0c-15.711509 0-28.447111 12.735602-28.447111 28.447111s12.735602 28.447111 28.447111 28.447111l284.439111 0c15.711509 0 28.447111-12.735602 28.447111-28.447111s-12.735602-28.447111-28.447111-28.447111z" /></svg>